<?xml version="1.0" standalone="no"?>
<!DOCTYPE svg PUBLIC "-//W3C//DTD SVG 20010904//EN"
 "http://www.w3.org/TR/2001/REC-SVG-20010904/DTD/svg10.dtd">
<svg version="1.0" xmlns="http://www.w3.org/2000/svg"
 width="1280.000000pt" height="838.000000pt" viewBox="0 0 1280.000000 838.000000"
 preserveAspectRatio="xMidYMid meet">
<metadata>
Created by potrace 1.15, written by Peter Selinger 2001-2017
</metadata>
<g transform="translate(0.000000,838.000000) scale(0.100000,-0.100000)"
fill="#000000" stroke="none">
<path d="M2420 8342 c0 -13 27 -35 39 -30 5 1 -2 11 -15 21 -13 10 -24 14 -24
9z"/>
<path d="M2189 8304 c-11 -14 -65 -13 -139 2 -21 5 -23 3 -12 -8 7 -7 33 -13
57 -13 52 0 63 -15 22 -29 -20 -7 -37 -6 -60 3 -18 7 -42 14 -55 15 -34 5 -21
-18 14 -24 20 -4 30 -12 32 -27 2 -12 11 -23 20 -25 10 -2 -9 -16 -48 -35 -51
-24 -69 -39 -82 -66 -12 -26 -30 -41 -64 -56 -26 -12 -45 -24 -41 -27 3 -3 18
1 34 9 34 17 126 33 103 17 -8 -5 -21 -10 -28 -10 -36 0 -197 -132 -211 -172
-14 -40 -14 -105 0 -113 7 -5 9 7 6 36 -2 24 2 58 9 76 15 36 39 57 31 27 -22
-77 -24 -155 -6 -183 7 -12 9 -4 4 27 -6 49 6 49 25 0 7 -18 20 -41 28 -50 13
-16 13 -20 -3 -38 -18 -20 -26 -75 -14 -100 4 -8 13 -30 20 -49 l13 -34 13 46
c7 25 18 49 24 53 7 4 7 -1 -1 -15 -6 -12 -10 -32 -7 -44 3 -21 4 -21 11 -2
29 75 52 88 43 24 -4 -32 -2 -39 9 -35 31 12 12 -34 -27 -65 -40 -31 -66 -76
-53 -88 4 -3 9 0 11 7 8 20 45 52 62 52 12 0 12 -3 3 -12 -19 -19 -14 -29 13
-22 l25 6 -15 -36 c-19 -44 -19 -57 -1 -33 25 33 27 -1 4 -68 -13 -36 -30 -68
-39 -70 -9 -3 -40 -27 -69 -54 l-53 -49 -91 -7 c-100 -7 -145 -8 -191 -3 -27
3 -31 0 -36 -32 -4 -19 -7 -29 -8 -22 0 6 -14 12 -31 12 -23 0 -30 -5 -30 -19
0 -11 -9 -23 -20 -26 -11 -3 -20 -12 -20 -19 0 -8 -7 -19 -15 -26 -13 -11 -18
-10 -28 5 -12 16 -17 14 -61 -24 -49 -43 -156 -101 -185 -101 -9 0 -29 -7 -46
-16 -37 -20 -160 -53 -240 -65 -41 -6 -75 -5 -107 3 -37 9 -60 9 -105 -1 -92
-20 -145 -23 -193 -12 l-45 11 -55 -59 c-40 -43 -76 -69 -131 -96 -93 -45
-114 -75 -107 -151 4 -44 15 -76 50 -151 17 -34 60 -47 141 -40 51 3 83 1 106
-9 59 -25 86 -18 167 42 107 79 135 86 308 74 177 -11 345 -56 484 -128 l34
-17 31 36 c18 20 41 63 51 95 25 74 32 84 65 84 15 0 35 -6 44 -12 16 -12 12
-28 -48 -203 -36 -104 -75 -235 -86 -290 -11 -55 -22 -107 -23 -115 -4 -14
-13 -65 -52 -276 -19 -107 -25 -273 -11 -319 12 -40 31 -44 62 -15 30 28 132
62 164 55 26 -5 28 -12 50 -119 l23 -113 -35 -55 c-20 -30 -43 -77 -51 -104
-9 -27 -36 -112 -61 -189 -56 -177 -77 -291 -79 -430 l-1 -110 -104 -200
c-126 -242 -173 -336 -207 -418 -14 -34 -48 -107 -74 -162 -46 -97 -116 -286
-126 -342 -3 -14 -8 -32 -12 -39 -4 -7 -4 -77 1 -156 4 -79 9 -177 11 -219 4
-86 28 -271 56 -431 21 -120 28 -493 11 -570 -5 -24 -15 -77 -21 -118 -7 -41
-21 -106 -32 -145 -21 -76 -90 -229 -107 -240 -6 -3 -11 -14 -11 -24 0 -12 17
-23 58 -38 l57 -21 -30 -12 c-47 -20 -106 -50 -155 -81 -60 -37 -109 -44 -230
-29 -56 6 -103 10 -105 8 -2 -2 -6 -15 -10 -29 -6 -26 -5 -27 47 -33 29 -4 85
-18 123 -31 39 -14 77 -25 85 -25 8 0 26 -6 40 -13 43 -22 143 -56 186 -63 39
-6 40 -5 59 36 32 71 65 86 139 64 18 -6 18 -34 0 -99 -5 -18 0 -21 38 -24
108 -7 102 -9 121 32 27 53 32 140 14 210 -16 62 -16 63 33 69 14 2 24 9 22
16 -9 45 5 291 23 407 8 50 17 113 19 140 3 28 12 104 20 170 21 160 21 463 0
581 -8 49 -17 113 -20 142 -3 29 -14 85 -25 125 -30 106 -33 147 -19 239 17
119 54 229 112 338 57 108 108 190 118 190 4 0 24 -30 46 -67 59 -103 209
-244 314 -295 69 -33 164 -73 255 -105 39 -13 79 -28 90 -33 11 -5 38 -14 60
-19 55 -14 223 -74 260 -93 45 -24 171 -160 198 -215 34 -68 77 -205 78 -250
1 -38 1 -38 9 -8 23 90 32 180 27 295 -7 175 -17 213 -94 362 -77 149 -136
220 -240 291 -38 26 -105 80 -149 121 -74 68 -85 84 -117 161 -38 90 -46 155
-32 250 7 46 39 125 51 125 6 0 60 -62 94 -108 15 -21 66 -78 112 -128 133
-139 247 -286 318 -409 50 -86 114 -191 137 -225 13 -19 52 -78 87 -130 63
-94 109 -156 194 -260 50 -61 95 -153 110 -225 18 -81 42 -208 46 -241 2 -17
11 -69 20 -115 38 -203 49 -311 53 -549 5 -238 4 -247 -19 -316 -25 -74 -67
-152 -92 -173 -21 -17 -10 -38 27 -51 l32 -11 -22 -17 c-12 -9 -43 -33 -69
-52 -26 -19 -74 -58 -108 -86 -70 -59 -173 -114 -211 -114 -15 0 -35 4 -45 10
-19 10 -31 1 -43 -33 -6 -16 10 -17 285 -15 l292 3 7 33 c8 41 7 40 44 44 29
3 30 1 33 -39 3 -41 5 -43 35 -43 18 0 49 -3 70 -6 l37 -7 0 77 c0 56 -5 87
-19 115 -25 48 -14 61 49 61 25 0 51 4 57 8 10 6 13 101 13 410 0 220 -2 411
-5 424 -3 13 -12 75 -20 138 -56 422 -66 481 -100 598 -58 194 -107 307 -188
434 -23 36 -71 113 -107 169 -36 56 -75 118 -87 136 -13 19 -23 36 -23 39 0 3
-13 24 -29 47 -43 63 -68 117 -112 240 -22 62 -49 132 -59 157 -10 25 -39 93
-63 152 l-44 107 30 10 c16 6 66 11 111 11 65 0 91 -5 134 -25 82 -38 183
-142 239 -244 100 -186 142 -247 225 -327 68 -66 95 -84 148 -103 36 -12 85
-32 109 -43 47 -22 79 -32 184 -53 38 -8 105 -25 150 -39 68 -20 232 -64 259
-70 6 -1 -37 -73 -131 -218 -17 -26 -33 -59 -37 -75 -4 -15 -17 -48 -29 -73
-27 -54 -62 -192 -70 -275 -5 -44 -21 -90 -60 -170 -37 -76 -66 -157 -93 -260
-59 -222 -67 -351 -43 -745 8 -123 11 -292 8 -395 -5 -154 -10 -193 -32 -269
-14 -49 -24 -91 -21 -93 9 -10 68 40 107 90 47 59 79 120 104 197 10 30 25 69
33 85 8 17 21 57 27 90 7 33 21 92 30 130 10 39 23 88 28 110 l9 40 21 -40
c20 -37 22 -55 22 -220 0 -139 -5 -211 -23 -319 -12 -77 -20 -141 -18 -143 9
-9 -97 -290 -117 -311 l-22 -23 27 10 c70 27 119 60 191 130 86 83 177 192
177 211 0 7 8 29 19 49 41 82 65 143 133 345 38 116 74 219 79 228 43 80 139
615 139 769 0 66 4 84 24 113 20 30 26 33 36 21 10 -12 45 -15 191 -15 l179 0
0 -775 c0 -613 -3 -775 -12 -776 -25 -1 -64 -10 -158 -35 -81 -22 -101 -32
-138 -67 -56 -55 -79 -93 -97 -162 -23 -88 -26 -85 64 -85 86 0 82 -3 96 65 7
35 27 60 77 98 31 24 40 27 57 17 18 -9 19 -14 10 -31 -6 -13 -8 -37 -3 -62 4
-23 8 -51 8 -62 1 -18 9 -20 99 -23 l98 -3 -20 39 c-35 68 -36 104 -6 140 57
68 105 17 105 -113 l0 -65 75 0 75 0 0 33 c0 17 -4 48 -8 67 -4 19 -6 48 -2
64 l5 28 47 -41 c43 -39 47 -46 50 -94 l3 -52 68 -3 68 -3 -6 53 c-11 88 -35
148 -78 196 -61 65 -119 91 -224 98 -48 3 -91 8 -95 11 -5 2 -8 348 -8 767 l0
763 276 9 276 9 29 35 c16 19 29 40 29 47 0 6 5 24 12 38 l11 26 181 -7 c144
-5 199 -3 271 10 116 21 195 21 195 2 0 -8 -5 -18 -10 -21 -6 -4 -23 -32 -39
-63 -44 -89 -91 -173 -112 -203 -31 -43 -241 -488 -269 -569 -15 -46 -90 -244
-130 -345 -27 -70 -117 -340 -182 -547 -23 -74 -17 -98 26 -98 11 0 28 -4 36
-10 12 -7 12 -12 -3 -28 -15 -17 -17 -31 -11 -96 l7 -76 103 0 c86 0 104 3
104 15 0 19 57 55 87 55 13 0 33 -14 50 -35 l28 -35 303 0 302 0 0 23 c0 45
-19 55 -115 60 -81 4 -99 8 -174 46 -47 23 -106 59 -133 80 -26 21 -68 45 -92
52 -43 13 -44 13 -52 68 -10 62 5 250 23 291 5 14 23 61 37 104 15 43 41 109
58 145 17 36 43 100 60 141 16 41 33 82 38 90 115 188 213 370 235 440 11 36
57 126 214 425 24 44 49 87 57 96 8 8 14 25 14 37 0 11 5 24 11 28 7 4 9 0 5
-13 -4 -12 5 -45 23 -84 31 -68 111 -309 111 -333 0 -7 17 -81 39 -162 37
-143 93 -395 106 -479 20 -123 163 -592 192 -626 8 -9 19 -34 25 -55 5 -21 18
-44 27 -51 16 -13 66 -8 86 7 6 5 26 10 45 12 l35 3 0 -65 c0 -80 27 -141 89
-198 91 -84 116 -88 163 -24 15 20 38 49 51 63 23 26 23 28 6 53 -9 15 -25 31
-35 37 -18 9 -18 11 -3 34 21 32 80 34 118 4 34 -27 55 -22 82 21 13 19 43 64
69 100 25 36 65 94 87 128 23 35 66 91 95 123 60 67 67 99 28 117 -41 19 -52
15 -72 -25 -13 -26 -43 -54 -102 -95 -94 -64 -141 -78 -255 -78 -63 0 -75 3
-93 23 -32 35 -130 222 -169 322 -19 49 -44 110 -54 135 -22 56 -99 301 -111
355 -5 22 -16 65 -24 95 -39 136 -55 206 -55 237 0 19 -16 97 -35 173 -19 76
-35 154 -35 172 0 18 -7 71 -15 118 -9 47 -16 141 -16 210 0 69 -3 152 -7 185
-7 59 -7 59 -47 71 -78 22 -271 27 -430 9 -83 -9 -168 -22 -190 -30 -48 -16
-224 -30 -356 -29 -98 2 -156 20 -189 59 -27 32 -68 46 -118 39 -42 -5 -52 -3
-79 20 -17 14 -37 26 -46 26 -8 0 -30 11 -50 24 -22 15 -44 22 -56 19 -11 -3
-32 -2 -46 1 -27 7 -53 45 -38 55 12 7 43 86 43 107 0 8 14 34 30 57 17 23 52
74 78 113 105 157 261 318 383 397 l28 18 27 -43 c53 -87 69 -108 86 -113 26
-9 43 -44 63 -130 26 -118 30 -120 121 -74 42 22 82 39 90 39 8 0 22 4 32 9
40 21 213 53 342 63 123 11 149 10 237 -6 97 -19 177 -50 202 -80 8 -9 19 -16
25 -16 17 0 42 49 50 97 8 53 26 93 41 93 7 0 20 -9 30 -20 27 -30 60 -26 75
10 20 48 37 57 51 26 7 -14 18 -26 25 -26 7 0 25 -10 39 -22 26 -23 26 -24 15
-92 -8 -51 -8 -72 1 -82 18 -22 45 -17 68 12 27 34 30 137 4 173 -15 23 -15
25 3 38 30 22 53 24 154 16 l95 -8 35 -71 c28 -56 99 -144 116 -144 2 0 11 14
20 31 15 29 14 32 -6 54 -11 12 -30 45 -40 74 -22 58 -26 104 -5 56 7 -17 23
-32 36 -35 16 -3 31 -20 44 -47 22 -47 41 -59 62 -41 11 9 13 23 9 50 -6 37
-6 37 18 27 58 -27 74 17 25 67 -16 17 -38 46 -47 65 -16 32 -32 41 -94 54
-19 4 -30 14 -35 33 -10 37 -10 39 -12 62 -1 29 -56 52 -88 37 -13 -5 -23 -14
-23 -18 0 -17 -81 -49 -122 -49 -35 0 -54 8 -103 44 -33 25 -68 51 -79 58 -17
13 -18 16 -3 44 9 17 41 51 72 75 57 44 89 71 232 189 146 121 313 308 313
352 0 16 -95 110 -127 127 -38 19 -94 97 -100 138 -5 36 -3 39 35 61 49 27 68
28 107 2 17 -11 50 -30 74 -42 l43 -21 -6 -61 c-7 -74 7 -110 47 -114 24 -3
27 0 27 24 0 52 32 132 57 143 20 9 31 5 83 -30 82 -57 83 -58 69 -115 -15
-66 -14 -98 6 -128 32 -49 51 -34 66 52 7 42 14 86 15 97 1 22 -40 110 -56
120 -12 8 -13 25 -1 25 5 0 31 -20 58 -45 48 -42 50 -47 56 -107 8 -91 21
-118 53 -118 24 0 26 3 20 33 -3 17 -9 64 -12 102 -7 64 -11 74 -51 120 -49
57 -56 85 -19 78 14 -3 33 -15 44 -27 21 -22 52 -103 52 -135 0 -24 31 -51 58
-51 26 0 26 6 7 85 -8 33 -14 76 -15 96 0 39 -26 65 -95 94 -46 19 -36 37 21
39 32 1 39 -3 56 -34 28 -52 74 -90 107 -90 44 0 45 24 1 95 -22 36 -40 71
-40 79 0 31 -31 39 -172 43 -134 4 -144 6 -193 34 -28 16 -64 29 -79 29 -15 0
-57 -16 -93 -36 l-67 -36 -75 15 c-42 9 -88 19 -103 22 -65 17 -116 -21 -183
-134 -59 -102 -63 -105 -108 -86 -71 29 -76 25 -70 -57 8 -107 -29 -264 -90
-383 -32 -61 -114 -171 -156 -207 -40 -35 -42 -39 -75 -133 -21 -60 -21 -60
-61 -60 -22 -1 -48 6 -57 13 -15 13 -21 13 -41 -1 -22 -14 -26 -14 -39 0 -22
21 -55 8 -73 -28 -9 -16 -24 -29 -33 -29 -36 0 -154 130 -219 240 -34 58 -76
125 -95 149 -93 122 -218 311 -257 388 -17 34 -35 64 -41 68 -19 12 -10 25 19
25 29 0 29 0 36 80 8 90 -2 239 -17 258 -16 19 -26 15 -72 -33 -58 -60 -86
-60 -122 -2 -15 23 -37 54 -51 68 l-24 27 120 101 c67 55 125 101 130 101 4 0
16 8 25 19 9 10 33 21 53 24 19 3 67 19 106 34 114 45 133 101 73 220 -22 42
-31 72 -25 77 12 13 12 66 0 66 -21 0 -41 33 -41 67 0 33 -1 34 -31 28 -23 -5
-34 -3 -44 12 -12 16 -10 22 11 50 54 71 13 109 -137 128 -37 5 -55 14 -91 49
-49 49 -120 76 -200 76 -35 0 -46 3 -42 13 8 22 -54 60 -89 54 -40 -6 -139
-41 -192 -67 -22 -11 -60 -29 -85 -40 -49 -22 -98 -50 -116 -65 -134 -116
-210 -206 -233 -277 -11 -37 -15 -86 -11 -138 2 -27 4 -21 11 27 4 34 15 74
24 90 16 27 16 25 10 -53 -5 -77 -4 -84 30 -157 19 -42 35 -91 36 -109 0 -31
1 -31 10 -9 7 17 4 39 -12 83 -16 43 -19 62 -11 70 8 8 13 3 18 -18 4 -16 14
-40 22 -53 9 -13 21 -51 28 -85 10 -49 12 -54 13 -26 1 19 4 45 7 58 l7 23 21
-20 c17 -16 20 -29 18 -65 -3 -37 -8 -45 -28 -50 -14 -4 -41 -21 -62 -40 -20
-18 -46 -38 -57 -45 -18 -11 -18 -12 8 -8 26 4 37 -6 18 -17 -5 -3 -14 -19
-19 -36 -15 -40 6 -40 52 1 20 17 51 33 73 36 l38 6 -35 -37 c-90 -96 -90 -96
-130 -96 -44 0 -90 -15 -90 -29 0 -6 16 -3 35 5 30 12 56 13 95 5 17 -4 -39
-31 -64 -31 -59 0 -147 -79 -146 -131 1 -20 5 -16 22 19 22 45 27 47 118 56
l55 5 -25 -20 c-14 -11 -48 -31 -77 -44 -35 -16 -57 -34 -68 -55 -25 -48 -14
-53 27 -15 20 19 45 35 54 35 15 0 12 -6 -12 -33 -16 -17 -40 -47 -53 -66
l-24 -34 37 28 c20 15 41 35 47 44 9 13 9 13 4 -4 -4 -11 -11 -85 -15 -165 -9
-160 -33 -247 -88 -318 -15 -21 -73 -104 -127 -186 -158 -237 -272 -346 -361
-346 -24 0 -54 -4 -68 -10 -22 -8 -26 -16 -26 -51 l0 -42 -24 22 -24 23 -17
-32 c-12 -23 -15 -45 -11 -71 7 -43 -3 -55 -30 -34 -10 8 -24 15 -31 15 -16 0
-62 -50 -69 -75 -3 -13 -19 -25 -43 -32 -72 -23 -159 -84 -256 -181 -91 -90
-231 -248 -266 -301 l-15 -24 -60 41 c-32 23 -84 63 -116 89 -104 88 -193 168
-200 179 -4 7 -24 31 -43 55 -37 44 -59 88 -75 149 -9 34 -14 59 -66 285 -14
61 -30 130 -36 155 -19 80 -73 161 -180 271 -91 94 -228 207 -288 239 -28 15
-315 110 -333 110 -7 0 -42 12 -78 26 -35 14 -91 36 -125 49 -71 27 -198 97
-234 129 -14 13 -36 30 -50 39 -52 35 -129 121 -160 178 -28 54 -31 67 -31
152 0 65 5 106 16 133 9 21 20 59 26 84 12 56 90 250 139 350 79 158 113 280
120 429 0 10 71 -65 94 -98 13 -20 56 -85 95 -145 40 -60 96 -136 126 -170 94
-106 175 -219 210 -291 18 -38 57 -119 86 -180 29 -60 55 -126 58 -145 5 -29
16 -41 67 -75 33 -22 75 -52 93 -67 18 -16 37 -28 42 -28 8 0 51 60 94 129 5
9 20 31 33 48 21 31 22 34 7 63 -31 61 -29 109 8 186 19 39 47 90 63 114 16
23 37 54 46 69 10 14 18 41 18 59 0 66 -112 152 -265 203 -71 24 -81 34 -77
77 l4 39 76 7 c42 3 81 11 86 16 6 6 33 10 62 10 38 0 59 -6 79 -22 69 -54
142 -72 184 -46 16 10 25 7 56 -18 21 -16 49 -38 64 -49 16 -11 56 -44 89 -73
52 -45 62 -59 62 -86 0 -17 4 -46 9 -64 9 -29 7 -33 -17 -46 -20 -10 -33 -11
-46 -4 -26 14 -29 5 -12 -36 16 -39 46 -49 46 -16 0 11 12 26 29 35 30 15 30
14 58 -21 26 -35 27 -37 8 -50 -12 -9 -30 -12 -47 -8 -25 5 -28 3 -28 -19 0
-25 28 -57 49 -57 8 0 11 8 8 20 -4 15 2 24 25 36 28 14 31 14 44 -3 7 -10 14
-31 14 -46 0 -45 51 -87 105 -87 41 0 47 4 100 64 40 46 56 72 53 88 -4 32
-65 70 -105 66 -39 -5 -44 16 -14 53 16 20 21 21 35 10 23 -20 46 -6 46 27 0
55 -58 69 -69 16 -3 -18 -18 -34 -32 -34 -11 0 -17 64 -8 88 7 18 14 22 30 17
18 -6 20 -3 17 31 -4 47 -25 56 -39 16 -16 -47 -37 -48 -83 -4 -23 22 -63 54
-90 72 -27 18 -100 78 -162 132 -104 90 -114 102 -114 134 0 34 -8 42 -26 24
-6 -6 -24 3 -49 24 -38 32 -40 37 -40 89 0 77 -18 93 -55 49 -27 -33 -29 -33
-53 -17 -14 9 -27 26 -29 38 -2 12 -9 21 -16 19 -18 -3 -65 31 -139 101 l-62
59 30 44 c36 52 46 119 29 184 -16 60 -101 143 -195 191 -67 34 -72 38 -107
109 -21 40 -42 78 -48 84 -16 16 -22 0 -8 -24 12 -20 10 -24 -24 -54 -34 -30
-41 -32 -90 -26 -52 5 -99 29 -129 66 -9 11 -10 19 -3 21 6 2 78 45 160 97 82
51 257 159 389 241 132 81 256 158 275 170 19 13 85 53 145 90 61 38 175 108
255 158 80 49 168 104 195 120 28 17 58 38 69 46 17 15 16 16 -20 23 -83 15
-104 10 -193 -45 -106 -66 -236 -144 -276 -167 -16 -9 -95 -57 -175 -105 -80
-48 -170 -102 -200 -120 -30 -17 -109 -65 -175 -105 -66 -40 -145 -87 -175
-105 -30 -17 -81 -48 -113 -68 -31 -20 -61 -37 -65 -37 -4 0 -18 -9 -32 -20
-36 -28 -43 -25 -35 21 l7 41 -38 -6 c-51 -8 -100 21 -121 72 -18 45 -71 102
-94 102 -10 0 -21 5 -24 10 -11 18 -150 9 -247 -15 -27 -7 -28 -5 -28 28 0 48
16 87 35 87 9 0 18 7 21 15 4 8 14 15 24 15 31 0 41 24 34 79 -6 50 -6 50 30
72 20 12 39 32 42 46 10 38 -5 175 -22 200 -8 12 -14 29 -14 36 0 19 -94 117
-111 117 -8 -1 -2 -8 14 -16 15 -8 27 -21 27 -29 0 -17 -11 -19 -26 -7 -5 5
-35 19 -67 32 -44 17 -61 20 -70 11 -8 -8 -6 -11 10 -11 21 0 98 -29 92 -34
-2 -2 -34 2 -71 8 -62 9 -68 13 -78 40 -5 16 -10 39 -10 50 0 23 -17 46 -34
46 -5 0 -1 -9 9 -20 25 -27 14 -34 -26 -16 -34 14 -132 32 -221 40 -33 2 -51
-1 -59 -10z m601 -195 c0 -6 -4 -7 -10 -4 -5 3 -10 11 -10 16 0 6 5 7 10 4 6
-3 10 -11 10 -16z m-812 -14 c-13 -28 -41 -35 -31 -7 7 17 22 32 35 32 4 0 2
-11 -4 -25z m2632 -63 c0 -4 -46 -35 -102 -69 -57 -35 -175 -107 -263 -161
-88 -55 -232 -143 -320 -197 -88 -54 -204 -126 -258 -159 -53 -34 -120 -74
-147 -91 -27 -16 -87 -53 -132 -81 -231 -143 -232 -144 -247 -130 -7 8 -11 18
-8 23 5 7 130 86 235 148 9 6 113 69 230 140 117 72 243 148 280 171 37 23
117 71 177 109 61 37 124 75 140 85 33 19 165 100 285 174 67 41 130 59 130
38z m-957 -1699 l70 -57 -60 -12 c-33 -7 -74 -19 -89 -27 -40 -21 -94 -73 -94
-90 0 -8 14 -40 31 -71 17 -34 29 -69 27 -84 -3 -24 -8 -27 -47 -30 -41 -3
-43 -5 -38 -30 2 -15 13 -48 23 -74 13 -34 15 -51 7 -59 -16 -16 -80 77 -97
142 -8 30 -19 67 -25 82 -6 15 -13 42 -16 60 -3 18 -17 61 -31 96 -14 35 -22
67 -17 71 8 7 108 36 108 31 0 -12 128 65 141 84 9 14 21 25 27 25 5 0 41 -26
80 -57z m167 -154 c0 -6 -4 -7 -10 -4 -5 3 -10 11 -10 16 0 6 5 7 10 4 6 -3
10 -11 10 -16z m91 -55 c12 -14 11 -16 -5 -13 -11 2 -21 10 -24 17 -5 17 13
15 29 -4z m106 -80 c37 -26 37 -26 8 -20 -32 8 -55 23 -55 37 0 13 6 11 47
-17z m2283 -693 c0 -10 -100 -45 -107 -37 -3 3 10 14 28 25 35 21 79 28 79 12z
m-187 -298 c-7 -2 -19 -2 -25 0 -7 3 -2 5 12 5 14 0 19 -2 13 -5z m1003 -1170
c17 -16 59 -58 94 -95 55 -59 60 -68 44 -74 -11 -4 -30 -15 -44 -25 -14 -9
-48 -29 -75 -43 l-49 -26 -22 27 c-18 23 -24 25 -36 15 -12 -10 -18 -9 -28 3
-17 21 -37 19 -50 -5 -15 -28 -28 -25 -36 8 -4 15 -10 32 -14 37 -3 6 -12 29
-19 53 -11 40 -11 44 11 62 27 23 85 53 143 74 52 19 46 20 81 -11z m1448
-259 c11 -29 6 -34 -29 -34 -19 0 -35 5 -35 10 0 6 7 10 15 10 9 0 18 7 21 15
8 19 20 19 28 -1z"/>
<path d="M2010 8205 c-7 -8 -8 -15 -2 -15 5 0 15 7 22 15 7 8 8 15 2 15 -5 0
-15 -7 -22 -15z"/>
<path d="M10370 7580 c-92 -16 -143 -48 -174 -108 -20 -39 -13 -75 31 -167 18
-38 33 -78 33 -88 0 -10 6 -30 14 -46 8 -15 35 -85 59 -157 41 -119 68 -194
148 -409 17 -44 66 -181 109 -305 43 -124 97 -274 120 -335 22 -60 48 -130 56
-155 9 -25 22 -58 29 -75 7 -16 21 -53 31 -80 l17 -51 -129 -249 c-71 -138
-160 -311 -197 -385 -38 -74 -97 -189 -131 -255 l-63 -120 -406 -3 -407 -2 0
-103 c0 -102 0 -104 31 -133 17 -16 37 -41 45 -56 l14 -28 -49 20 -49 19 -50
-88 -49 -89 36 -11 c64 -20 64 -18 22 -126 -22 -55 -46 -113 -54 -130 -8 -16
-44 -104 -81 -195 -123 -311 -107 -282 -168 -296 -29 -7 -76 -15 -103 -18 -93
-11 -170 -29 -220 -53 -27 -12 -57 -23 -66 -23 -8 0 -39 -21 -68 -47 -43 -40
-56 -60 -75 -118 -41 -120 -46 -225 -24 -481 l12 -142 278 -7 278 -7 0 -34 c0
-18 4 -35 10 -39 5 -3 62 -6 127 -6 68 0 122 -4 130 -11 10 -8 13 -73 13 -287
0 -152 7 -605 17 -1006 9 -402 14 -738 10 -748 -6 -15 -23 -17 -139 -17 -136
0 -311 -19 -361 -39 -32 -13 -46 -39 -26 -52 8 -5 130 -9 272 -9 l257 0 0 -49
c0 -46 1 -49 31 -55 17 -3 65 -6 105 -6 l74 0 0 153 c0 83 -4 377 -10 652 -10
531 -18 1383 -12 1350 1 -11 12 -45 23 -76 l21 -57 51 -6 c88 -12 81 11 106
-323 12 -164 33 -442 46 -618 14 -176 25 -332 25 -347 0 -19 -9 -32 -34 -47
-33 -21 -33 -21 -25 -73 4 -29 15 -114 25 -189 l17 -137 49 -4 c101 -10 86
-52 -22 -61 -93 -8 -125 -26 -151 -87 -16 -36 -13 -79 10 -131 32 -71 48 -81
143 -85 69 -3 89 0 115 16 40 24 68 79 77 150 4 30 12 60 17 66 5 7 13 31 17
55 7 42 10 45 52 55 l45 11 17 154 c25 228 25 223 -19 243 l-38 17 13 187 c7
103 29 403 50 667 l37 480 33 3 c30 3 32 6 34 45 2 81 9 95 66 137 83 62 148
80 282 80 l118 0 12 34 c10 32 14 34 68 40 31 3 456 8 945 12 l887 7 0 148 c0
93 4 149 10 149 6 0 10 11 10 25 0 14 -4 25 -10 25 -7 0 -11 524 -12 1538 l-3
1537 -120 7 c-66 3 -136 9 -155 13 -88 17 -261 126 -316 200 -39 51 -127 225
-198 390 -83 193 -171 359 -251 470 -66 93 -230 242 -290 265 -15 6 -39 19
-54 29 -69 49 -357 178 -449 200 -20 5 -62 18 -92 29 -128 47 -382 80 -480 62z
m555 -2231 c14 -41 39 -112 55 -159 16 -47 57 -161 90 -255 74 -205 113 -326
107 -331 -2 -2 -155 -3 -339 -2 l-334 3 102 220 c57 121 132 281 167 355 35
74 76 162 91 194 14 32 28 57 31 54 3 -2 16 -38 30 -79z m-1256 -1409 c1 -137
-10 -197 -59 -312 -51 -123 -121 -195 -200 -205 l-41 -6 17 39 c16 36 77 192
129 329 23 61 88 216 120 290 17 39 18 39 25 15 5 -14 8 -81 9 -150z"/>
</g>
</svg>
